<svg xmlns="http://www.w3.org/2000/svg" xmlns:xlink="http://www.w3.org/1999/xlink" width="298" zoomAndPan="magnify" viewBox="0 0 223.5 89.999999" height="120" preserveAspectRatio="xMidYMid meet" version="1.0"><path stroke-linecap="butt" transform="matrix(0.625538, 0, 0, 0.624239, -12.614022, -26.21486)" fill="none" stroke-linejoin="round" d="M 28.539138 48.208709 L 369.795624 48.208709 L 369.795624 141.290765 L 28.539138 141.290765 Z M 28.539138 48.208709 " stroke="#000000" stroke-width="5.657" stroke-opacity="1" stroke-miterlimit="4"/><path fill="#000000" d="M 45.734375 30.023438 L 29.726562 30.023438 C 21.285156 30.023438 19.792969 29.394531 19.792969 24.652344 C 19.792969 18.097656 23.492188 17.550781 33.917969 17.550781 L 40.1875 17.550781 C 52.285156 17.550781 54.015625 18.386719 54.488281 22.570312 C 54.535156 23.5 55.0625 24.285156 55.835938 24.707031 C 56.207031 24.910156 56.617188 25.027344 57.0625 25.027344 C 58 25.027344 58.824219 24.523438 59.273438 23.773438 C 59.503906 23.394531 59.644531 22.9375 59.644531 22.457031 C 59.644531 22.382812 59.644531 22.246094 59.644531 22.246094 C 59.179688 16.109375 57.515625 13.15625 45.039062 13.15625 L 31.28125 13.15625 C 20.132812 13.15625 14.722656 15.191406 14.722656 24.277344 C 14.722656 34.855469 20.132812 34.875 36.636719 34.875 L 46.898438 34.875 C 53.632812 34.875 55.617188 36.140625 55.617188 41.160156 C 55.617188 46.890625 53.304688 48.53125 45.46875 48.53125 L 28.683594 48.53125 C 21.953125 48.53125 19.859375 46.664062 19.859375 42.753906 C 19.859375 42.753906 19.84375 42.570312 19.84375 42.476562 C 19.84375 41.09375 18.738281 39.972656 17.355469 39.945312 L 17.265625 39.945312 C 15.890625 39.972656 14.777344 41.09375 14.777344 42.476562 C 14.777344 42.609375 14.777344 42.871094 14.777344 42.871094 C 14.777344 51.570312 20.140625 52.949219 28.039062 52.949219 L 44.632812 52.949219 C 52.632812 52.949219 60.691406 52.765625 60.691406 42.953125 L 60.691406 39.3125 C 60.6875 32.523438 56.28125 30.023438 45.734375 30.023438 Z M 45.734375 30.023438 " fill-opacity="1" fill-rule="nonzero"/><path fill="#000000" d="M 208.367188 48.324219 C 208.367188 48.316406 208.359375 48.316406 208.359375 48.3125 L 192.96875 32.949219 L 196.9375 28.972656 L 196.9375 28.964844 L 208.339844 17.601562 C 208.351562 17.59375 208.359375 17.582031 208.359375 17.574219 C 209.421875 16.515625 209.421875 14.8125 208.359375 13.746094 C 207.304688 12.695312 205.59375 12.695312 204.53125 13.746094 C 204.527344 13.746094 204.527344 13.753906 204.523438 13.761719 L 189.125 29.128906 L 178.128906 18.15625 L 173.746094 13.785156 C 173.738281 13.78125 173.730469 13.761719 173.71875 13.753906 C 172.667969 12.699219 170.949219 12.699219 169.898438 13.753906 C 168.828125 14.8125 168.828125 16.519531 169.898438 17.582031 C 169.898438 17.582031 169.902344 17.582031 169.902344 17.585938 L 185.292969 32.949219 L 174.300781 43.929688 L 169.917969 48.296875 C 169.902344 48.3125 169.898438 48.3125 169.890625 48.324219 C 168.820312 49.386719 168.820312 51.089844 169.890625 52.144531 C 170.945312 53.203125 172.664062 53.203125 173.710938 52.144531 C 173.71875 52.144531 173.71875 52.136719 173.71875 52.132812 L 189.117188 36.761719 L 193.09375 40.746094 L 204.492188 52.109375 C 204.496094 52.121094 204.511719 52.132812 204.523438 52.136719 C 205.578125 53.195312 207.292969 53.195312 208.351562 52.136719 C 209.425781 51.085938 209.425781 49.382812 208.367188 48.324219 Z M 208.367188 48.324219 " fill-opacity="1" fill-rule="nonzero"/><path fill="#000000" d="M 109.027344 13.050781 C 109.023438 13.050781 109.023438 13.050781 109.015625 13.050781 L 68.554688 13.050781 C 68.539062 13.050781 68.523438 13.042969 68.511719 13.042969 C 67.019531 13.042969 65.800781 14.261719 65.800781 15.746094 C 65.800781 17.246094 67.019531 18.449219 68.511719 18.449219 C 68.519531 18.449219 68.523438 18.449219 68.539062 18.449219 L 86.070312 18.449219 L 86.070312 44.019531 L 86.078125 44.019531 L 86.078125 50.195312 C 86.078125 50.210938 86.0625 50.222656 86.0625 50.234375 C 86.0625 51.726562 87.277344 52.9375 88.773438 52.9375 C 90.273438 52.9375 91.488281 51.726562 91.488281 50.234375 C 91.488281 50.234375 91.488281 50.230469 91.488281 50.222656 L 91.488281 18.449219 L 108.996094 18.449219 C 109.007812 18.449219 109.023438 18.449219 109.035156 18.449219 C 110.527344 18.449219 111.742188 17.25 111.742188 15.746094 C 111.726562 14.261719 110.523438 13.050781 109.027344 13.050781 Z M 109.027344 13.050781 " fill-opacity="1" fill-rule="nonzero"/><path fill="#000000" d="M 160.304688 13.746094 C 159.246094 12.695312 157.53125 12.695312 156.46875 13.746094 C 156.46875 13.746094 156.46875 13.753906 156.460938 13.761719 L 141.0625 29.128906 L 130.070312 18.148438 L 130.0625 18.148438 L 125.683594 13.78125 C 125.679688 13.773438 125.675781 13.753906 125.660156 13.746094 C 124.597656 12.695312 122.882812 12.695312 121.832031 13.746094 C 120.773438 14.804688 120.773438 16.515625 121.832031 17.574219 C 121.832031 17.574219 121.847656 17.574219 121.847656 17.582031 L 138.296875 34.007812 L 138.359375 34.007812 L 138.359375 50.203125 C 138.359375 50.214844 138.359375 50.230469 138.359375 50.242188 C 138.359375 51.734375 139.578125 52.945312 141.066406 52.945312 C 142.5625 52.945312 143.773438 51.734375 143.773438 50.242188 C 143.773438 50.242188 143.773438 50.234375 143.773438 50.230469 L 143.773438 34.007812 L 143.839844 34.007812 L 148.882812 28.972656 L 148.882812 28.964844 L 160.277344 17.601562 C 160.285156 17.59375 160.304688 17.582031 160.308594 17.574219 C 161.359375 16.519531 161.359375 14.8125 160.304688 13.746094 Z M 160.304688 13.746094 " fill-opacity="1" fill-rule="nonzero"/><path fill="#000000" d="M 19.703125 84.367188 L 16.183594 84.367188 L 5.527344 71.152344 L 5.480469 71.152344 L 5.480469 84.367188 L 3.316406 84.367188 L 3.316406 69.792969 L 6.863281 69.792969 L 17.492188 83.101562 L 17.550781 83.101562 L 17.550781 69.792969 L 19.703125 69.792969 Z M 19.703125 84.367188 " fill-opacity="1" fill-rule="nonzero"/><path fill="#000000" d="M 25.914062 81.285156 L 24.441406 84.375 L 22.191406 84.375 L 29.101562 69.800781 L 32.144531 69.800781 L 39.238281 84.375 L 37.007812 84.375 L 35.507812 81.285156 Z M 30.667969 71.152344 L 26.488281 79.917969 L 34.894531 79.917969 Z M 30.667969 71.152344 " fill-opacity="1" fill-rule="nonzero"/><path fill="#000000" d="M 46.878906 84.367188 L 44.730469 84.367188 L 44.730469 71.25 L 38.574219 71.25 L 38.574219 69.792969 L 53.035156 69.792969 L 53.035156 71.25 L 46.878906 71.25 Z M 46.878906 84.367188 " fill-opacity="1" fill-rule="nonzero"/><path fill="#000000" d="M 70.605469 69.792969 L 70.605469 80.289062 C 70.605469 84.191406 67.566406 84.492188 63.089844 84.492188 C 58.933594 84.492188 55.574219 84.40625 55.574219 80.289062 L 55.574219 69.792969 L 57.726562 69.792969 L 57.726562 80.289062 C 57.726562 82.664062 58.460938 83.027344 63.089844 83.027344 C 66.910156 83.027344 68.460938 83.003906 68.460938 80.289062 L 68.460938 69.792969 Z M 70.605469 69.792969 " fill-opacity="1" fill-rule="nonzero"/><path fill="#000000" d="M 76.914062 84.367188 L 74.761719 84.367188 L 74.761719 69.792969 L 83.515625 69.792969 C 87.617188 69.792969 89.417969 70.667969 89.417969 73.988281 C 89.417969 76.035156 89.117188 77.550781 86.109375 77.835938 L 86.109375 77.878906 C 88.234375 77.996094 89.171875 78.929688 89.171875 80.503906 L 89.171875 84.367188 L 87.027344 84.367188 L 87.027344 81.28125 C 87.027344 79.429688 86.4375 78.539062 83.835938 78.539062 L 76.925781 78.539062 L 76.925781 84.367188 Z M 83.542969 77.085938 C 86.859375 77.007812 87.273438 76.230469 87.273438 73.820312 C 87.273438 71.953125 86.9375 71.25 83.542969 71.25 L 76.914062 71.25 L 76.914062 77.085938 Z M 83.542969 77.085938 " fill-opacity="1" fill-rule="nonzero"/><path fill="#000000" d="M 98.023438 84.5 C 94.558594 84.5 92.507812 82.824219 92.507812 79.90625 L 92.507812 74.269531 C 92.507812 70.160156 95.820312 69.691406 100.425781 69.691406 L 102.207031 69.691406 C 106.179688 69.691406 107.398438 71.011719 107.398438 73.886719 L 107.398438 74.351562 L 105.25 74.351562 L 105.25 73.941406 C 105.25 71.898438 104.699219 71.140625 101.90625 71.140625 L 100.6875 71.140625 C 96.242188 71.140625 94.664062 71.546875 94.664062 74.207031 L 94.664062 78.214844 C 94.664062 81.539062 94.839844 83.03125 98.429688 83.03125 L 100.984375 83.03125 C 104.429688 83.03125 105.496094 82.667969 105.496094 80.585938 L 105.496094 79.414062 L 107.644531 79.414062 L 107.644531 80.773438 C 107.644531 84.117188 104.859375 84.492188 101.066406 84.492188 L 98.023438 84.492188 Z M 98.023438 84.5 " fill-opacity="1" fill-rule="nonzero"/><path fill="#000000" d="M 118.597656 69.683594 C 123.328125 69.71875 124.757812 70.921875 124.757812 74.582031 L 124.757812 79.769531 C 124.757812 83.199219 123.148438 84.5 118.597656 84.5 L 116.035156 84.5 C 111.488281 84.5 109.859375 83.207031 109.859375 79.769531 L 109.859375 74.582031 C 109.859375 70.929688 111.304688 69.71875 116.035156 69.683594 Z M 116.035156 71.140625 C 112.84375 71.140625 112.011719 71.746094 112.011719 74.582031 L 112.011719 79.769531 C 112.011719 82.667969 113.253906 83.015625 116.035156 83.03125 L 118.597656 83.03125 C 121.375 83.007812 122.621094 82.667969 122.621094 79.769531 L 122.621094 74.582031 C 122.621094 71.746094 121.777344 71.140625 118.597656 71.140625 Z M 116.035156 71.140625 " fill-opacity="1" fill-rule="nonzero"/><path fill="#000000" d="M 127.324219 73.925781 C 127.324219 70.039062 129.652344 69.683594 134.332031 69.683594 C 138.433594 69.683594 141.398438 69.824219 141.164062 73.78125 L 139.027344 73.78125 C 138.921875 71.242188 138.289062 71.140625 134.269531 71.140625 C 130.058594 71.140625 129.476562 71.546875 129.476562 73.570312 C 129.476562 76.347656 131.195312 76.117188 134.742188 76.203125 C 139.242188 76.390625 141.535156 76.296875 141.535156 80.234375 C 141.535156 84.355469 138.984375 84.5 134.210938 84.5 C 129.382812 84.5 126.875 84.039062 127.277344 79.832031 L 129.433594 79.832031 C 129.382812 83.039062 130.195312 83.039062 134.210938 83.039062 C 138.269531 83.039062 139.382812 83.039062 139.382812 80.179688 C 139.382812 77.402344 137.757812 77.871094 134.292969 77.660156 C 130.539062 77.421875 127.324219 77.757812 127.324219 73.925781 Z M 127.324219 73.925781 " fill-opacity="1" fill-rule="nonzero"/><path fill="#000000" d="M 156.257812 84.367188 L 154.128906 84.367188 L 146.921875 71.035156 L 146.882812 71.035156 L 146.882812 84.367188 L 144.71875 84.367188 L 144.71875 69.792969 L 148.449219 69.792969 L 155.152344 82.269531 L 161.890625 69.792969 L 165.613281 69.792969 L 165.613281 84.367188 L 163.460938 84.367188 L 163.460938 71.035156 L 163.410156 71.035156 Z M 156.257812 84.367188 " fill-opacity="1" fill-rule="nonzero"/><path fill="#000000" d="M 171.1875 76.214844 L 180.804688 76.214844 L 180.804688 77.5625 L 171.1875 77.5625 L 171.1875 82.914062 L 181.234375 82.914062 L 181.234375 84.367188 L 169.035156 84.367188 L 169.035156 69.792969 L 181.234375 69.792969 L 181.234375 71.25 L 171.1875 71.25 Z M 171.1875 76.214844 " fill-opacity="1" fill-rule="nonzero"/><path fill="#000000" d="M 191.191406 84.367188 L 189.042969 84.367188 L 189.042969 71.25 L 182.886719 71.25 L 182.886719 69.792969 L 197.339844 69.792969 L 197.339844 71.25 L 191.191406 71.25 Z M 191.191406 84.367188 " fill-opacity="1" fill-rule="nonzero"/><path fill="#000000" d="M 199.875 69.792969 L 202.03125 69.792969 L 202.03125 84.367188 L 199.875 84.367188 Z M 199.875 69.792969 " fill-opacity="1" fill-rule="nonzero"/><path fill="#000000" d="M 211.089844 84.5 C 207.617188 84.5 205.566406 82.824219 205.566406 79.90625 L 205.566406 74.269531 C 205.566406 70.160156 208.886719 69.691406 213.492188 69.691406 L 215.269531 69.691406 C 219.242188 69.691406 220.460938 71.011719 220.460938 73.886719 L 220.460938 74.351562 L 218.308594 74.351562 L 218.308594 73.941406 C 218.308594 71.898438 217.753906 71.140625 214.960938 71.140625 L 213.753906 71.140625 C 209.300781 71.140625 207.722656 71.546875 207.722656 74.207031 L 207.722656 78.214844 C 207.722656 81.539062 207.898438 83.03125 211.503906 83.03125 L 214.054688 83.03125 C 217.5 83.03125 218.558594 82.667969 218.558594 80.585938 L 218.558594 79.414062 L 220.710938 79.414062 L 220.710938 80.773438 C 220.710938 84.117188 217.933594 84.492188 214.136719 84.492188 L 211.089844 84.492188 Z M 211.089844 84.5 " fill-opacity="1" fill-rule="nonzero"/></svg>