<svg xmlns="http://www.w3.org/2000/svg" xmlns:xlink="http://www.w3.org/1999/xlink" width="312" zoomAndPan="magnify" viewBox="0 0 234 142.499996" height="190" preserveAspectRatio="xMidYMid meet" version="1.0"><defs><clipPath id="30cc1209d7"><path d="M 2 128 L 233 128 L 233 138.917969 L 2 138.917969 Z M 2 128 " clip-rule="nonzero"/></clipPath><clipPath id="c6109cd860"><path d="M 2 4.390625 L 233 4.390625 L 233 15 L 2 15 Z M 2 4.390625 " clip-rule="nonzero"/></clipPath><clipPath id="17493cfded"><path d="M 2 4.390625 L 108 4.390625 L 108 77 L 2 77 Z M 2 4.390625 " clip-rule="nonzero"/></clipPath></defs><path stroke-linecap="butt" transform="matrix(0.0653213, 0, 0, 0.0656261, 206.293383, 126.230947)" fill="none" stroke-linejoin="round" d="M 28.518497 48.206171 L 369.800018 48.206171 L 369.800018 141.299822 L 28.518497 141.299822 Z M 28.518497 48.206171 " stroke="#000000" stroke-width="5.657" stroke-opacity="1" stroke-miterlimit="4"/><path fill="#000000" d="M 212.386719 132.144531 L 210.714844 132.144531 C 209.832031 132.144531 209.675781 132.078125 209.675781 131.578125 C 209.675781 130.890625 210.0625 130.832031 211.152344 130.832031 L 211.808594 130.832031 C 213.070312 130.832031 213.25 130.917969 213.300781 131.359375 C 213.304688 131.457031 213.359375 131.539062 213.441406 131.585938 C 213.480469 131.605469 213.523438 131.617188 213.570312 131.617188 C 213.667969 131.617188 213.753906 131.566406 213.800781 131.484375 C 213.824219 131.445312 213.839844 131.398438 213.839844 131.347656 C 213.839844 131.339844 213.839844 131.324219 213.839844 131.324219 C 213.789062 130.679688 213.617188 130.371094 212.3125 130.371094 L 210.878906 130.371094 C 209.714844 130.371094 209.148438 130.582031 209.148438 131.539062 C 209.148438 132.652344 209.714844 132.652344 211.4375 132.652344 L 212.507812 132.652344 C 213.210938 132.652344 213.417969 132.785156 213.417969 133.3125 C 213.417969 133.917969 213.175781 134.089844 212.359375 134.089844 L 210.605469 134.089844 C 209.902344 134.089844 209.683594 133.894531 209.683594 133.480469 C 209.683594 133.480469 209.683594 133.460938 209.683594 133.453125 C 209.683594 133.308594 209.566406 133.1875 209.421875 133.1875 L 209.414062 133.1875 C 209.269531 133.1875 209.152344 133.308594 209.152344 133.453125 C 209.152344 133.464844 209.152344 133.492188 209.152344 133.492188 C 209.152344 134.410156 209.714844 134.554688 210.539062 134.554688 L 212.273438 134.554688 C 213.105469 134.554688 213.949219 134.535156 213.949219 133.503906 L 213.949219 133.121094 C 213.949219 132.40625 213.488281 132.144531 212.386719 132.144531 Z M 212.386719 132.144531 " fill-opacity="1" fill-rule="nonzero"/><path fill="#000000" d="M 229.371094 134.066406 C 229.371094 134.066406 229.367188 134.066406 229.367188 134.066406 L 227.761719 132.449219 L 228.175781 132.03125 L 229.367188 130.835938 C 229.480469 130.722656 229.480469 130.542969 229.367188 130.433594 C 229.257812 130.320312 229.078125 130.320312 228.96875 130.433594 L 227.359375 132.050781 L 226.210938 130.894531 L 225.753906 130.4375 C 225.753906 130.4375 225.753906 130.433594 225.75 130.433594 C 225.640625 130.320312 225.460938 130.320312 225.351562 130.433594 C 225.242188 130.542969 225.242188 130.722656 225.351562 130.835938 L 226.960938 132.449219 L 225.8125 133.605469 L 225.355469 134.0625 C 225.351562 134.066406 225.351562 134.066406 225.351562 134.066406 C 225.238281 134.179688 225.238281 134.359375 225.351562 134.46875 C 225.460938 134.578125 225.640625 134.578125 225.75 134.46875 L 227.359375 132.851562 L 227.773438 133.269531 L 228.964844 134.464844 C 228.964844 134.464844 228.964844 134.46875 228.96875 134.46875 C 229.078125 134.578125 229.257812 134.578125 229.367188 134.46875 C 229.480469 134.355469 229.480469 134.179688 229.371094 134.066406 Z M 229.371094 134.066406 " fill-opacity="1" fill-rule="nonzero"/><path fill="#000000" d="M 218.996094 130.359375 L 214.769531 130.359375 C 214.769531 130.359375 214.765625 130.359375 214.765625 130.359375 C 214.609375 130.359375 214.480469 130.484375 214.480469 130.640625 C 214.480469 130.800781 214.609375 130.925781 214.765625 130.925781 C 214.765625 130.925781 214.765625 130.925781 214.769531 130.925781 L 216.597656 130.925781 L 216.597656 134.265625 C 216.597656 134.265625 216.597656 134.265625 216.597656 134.269531 C 216.597656 134.425781 216.722656 134.550781 216.878906 134.550781 C 217.039062 134.550781 217.164062 134.425781 217.164062 134.269531 C 217.164062 134.269531 217.164062 134.265625 217.164062 134.265625 L 217.164062 130.925781 L 218.992188 130.925781 C 218.992188 130.925781 218.996094 130.925781 218.996094 130.925781 C 219.152344 130.925781 219.277344 130.800781 219.277344 130.640625 C 219.277344 130.484375 219.152344 130.359375 218.996094 130.359375 Z M 218.996094 130.359375 " fill-opacity="1" fill-rule="nonzero"/><path fill="#000000" d="M 224.351562 130.433594 C 224.238281 130.320312 224.0625 130.320312 223.949219 130.433594 L 222.339844 132.050781 L 221.191406 130.894531 L 220.734375 130.4375 C 220.734375 130.433594 220.734375 130.433594 220.734375 130.433594 C 220.621094 130.320312 220.441406 130.320312 220.332031 130.433594 C 220.222656 130.542969 220.222656 130.722656 220.332031 130.835938 C 220.332031 130.835938 220.335938 130.835938 220.335938 130.835938 L 222.050781 132.5625 L 222.058594 132.5625 L 222.058594 134.265625 C 222.058594 134.265625 222.058594 134.265625 222.058594 134.269531 C 222.058594 134.425781 222.1875 134.554688 222.339844 134.554688 C 222.496094 134.554688 222.625 134.425781 222.625 134.269531 C 222.625 134.269531 222.625 134.269531 222.625 134.265625 L 222.625 132.5625 L 222.632812 132.5625 L 223.15625 132.03125 L 224.347656 130.835938 C 224.347656 130.835938 224.351562 130.835938 224.351562 130.835938 C 224.460938 130.722656 224.460938 130.542969 224.351562 130.433594 Z M 224.351562 130.433594 " fill-opacity="1" fill-rule="nonzero"/><path fill="#000000" d="M 209.667969 137.855469 L 209.300781 137.855469 L 208.1875 136.46875 L 208.183594 136.46875 L 208.183594 137.855469 L 207.957031 137.855469 L 207.957031 136.324219 L 208.328125 136.324219 L 209.4375 137.722656 L 209.441406 137.722656 L 209.441406 136.324219 L 209.667969 136.324219 Z M 209.667969 137.855469 " fill-opacity="1" fill-rule="nonzero"/><path fill="#000000" d="M 210.316406 137.53125 L 210.164062 137.855469 L 209.925781 137.855469 L 210.648438 136.324219 L 210.96875 136.324219 L 211.707031 137.855469 L 211.476562 137.855469 L 211.320312 137.53125 Z M 210.8125 136.46875 L 210.375 137.390625 L 211.253906 137.390625 Z M 210.8125 136.46875 " fill-opacity="1" fill-rule="nonzero"/><path fill="#000000" d="M 212.507812 137.855469 L 212.28125 137.855469 L 212.28125 136.476562 L 211.636719 136.476562 L 211.636719 136.324219 L 213.148438 136.324219 L 213.148438 136.476562 L 212.507812 136.476562 Z M 212.507812 137.855469 " fill-opacity="1" fill-rule="nonzero"/><path fill="#000000" d="M 214.984375 136.324219 L 214.984375 137.425781 C 214.984375 137.839844 214.667969 137.871094 214.199219 137.871094 C 213.765625 137.871094 213.414062 137.859375 213.414062 137.425781 L 213.414062 136.324219 L 213.640625 136.324219 L 213.640625 137.425781 C 213.640625 137.675781 213.714844 137.714844 214.199219 137.714844 C 214.597656 137.714844 214.757812 137.714844 214.757812 137.425781 L 214.757812 136.324219 Z M 214.984375 136.324219 " fill-opacity="1" fill-rule="nonzero"/><path fill="#000000" d="M 215.640625 137.855469 L 215.417969 137.855469 L 215.417969 136.324219 L 216.332031 136.324219 C 216.761719 136.324219 216.949219 136.417969 216.949219 136.765625 C 216.949219 136.980469 216.917969 137.140625 216.601562 137.171875 L 216.601562 137.175781 C 216.824219 137.1875 216.921875 137.285156 216.921875 137.449219 L 216.921875 137.855469 L 216.699219 137.855469 L 216.699219 137.53125 C 216.699219 137.335938 216.636719 137.242188 216.363281 137.242188 L 215.644531 137.242188 L 215.644531 137.855469 Z M 216.335938 137.089844 C 216.679688 137.082031 216.722656 137 216.722656 136.746094 C 216.722656 136.550781 216.6875 136.476562 216.335938 136.476562 L 215.640625 136.476562 L 215.640625 137.089844 Z M 216.335938 137.089844 " fill-opacity="1" fill-rule="nonzero"/><path fill="#000000" d="M 217.847656 137.871094 C 217.484375 137.871094 217.269531 137.695312 217.269531 137.386719 L 217.269531 136.792969 C 217.269531 136.363281 217.617188 136.3125 218.097656 136.3125 L 218.285156 136.3125 C 218.699219 136.3125 218.824219 136.453125 218.824219 136.753906 L 218.824219 136.804688 L 218.601562 136.804688 L 218.601562 136.761719 C 218.601562 136.546875 218.542969 136.464844 218.253906 136.464844 L 218.125 136.464844 C 217.660156 136.464844 217.496094 136.507812 217.496094 136.789062 L 217.496094 137.210938 C 217.496094 137.558594 217.515625 137.714844 217.890625 137.714844 L 218.15625 137.714844 C 218.515625 137.714844 218.625 137.679688 218.625 137.457031 L 218.625 137.335938 L 218.851562 137.335938 L 218.851562 137.480469 C 218.851562 137.832031 218.558594 137.871094 218.164062 137.871094 Z M 217.847656 137.871094 " fill-opacity="1" fill-rule="nonzero"/><path fill="#000000" d="M 219.996094 136.3125 C 220.488281 136.316406 220.636719 136.441406 220.636719 136.828125 L 220.636719 137.371094 C 220.636719 137.734375 220.46875 137.871094 219.996094 137.871094 L 219.726562 137.871094 C 219.253906 137.871094 219.082031 137.734375 219.082031 137.371094 L 219.082031 136.828125 C 219.082031 136.445312 219.234375 136.316406 219.726562 136.3125 Z M 219.726562 136.464844 C 219.394531 136.464844 219.308594 136.53125 219.308594 136.828125 L 219.308594 137.371094 C 219.308594 137.679688 219.4375 137.714844 219.726562 137.714844 L 219.996094 137.714844 C 220.285156 137.714844 220.414062 137.679688 220.414062 137.371094 L 220.414062 136.828125 C 220.414062 136.53125 220.328125 136.464844 219.996094 136.464844 Z M 219.726562 136.464844 " fill-opacity="1" fill-rule="nonzero"/><path fill="#000000" d="M 220.90625 136.757812 C 220.90625 136.351562 221.148438 136.3125 221.636719 136.3125 C 222.066406 136.3125 222.375 136.328125 222.351562 136.742188 L 222.128906 136.742188 C 222.117188 136.476562 222.050781 136.464844 221.632812 136.464844 C 221.191406 136.464844 221.132812 136.507812 221.132812 136.722656 C 221.132812 137.011719 221.3125 136.988281 221.679688 137 C 222.152344 137.019531 222.390625 137.007812 222.390625 137.421875 C 222.390625 137.855469 222.125 137.871094 221.625 137.871094 C 221.121094 137.871094 220.859375 137.820312 220.902344 137.378906 L 221.125 137.378906 C 221.121094 137.714844 221.207031 137.714844 221.625 137.714844 C 222.050781 137.714844 222.164062 137.714844 222.164062 137.417969 C 222.164062 137.125 221.996094 137.171875 221.632812 137.152344 C 221.242188 137.125 220.90625 137.160156 220.90625 136.757812 Z M 220.90625 136.757812 " fill-opacity="1" fill-rule="nonzero"/><path fill="#000000" d="M 223.925781 137.855469 L 223.707031 137.855469 L 222.953125 136.453125 L 222.949219 136.453125 L 222.949219 137.855469 L 222.722656 137.855469 L 222.722656 136.324219 L 223.113281 136.324219 L 223.8125 137.636719 L 224.515625 136.324219 L 224.90625 136.324219 L 224.90625 137.855469 L 224.679688 137.855469 L 224.679688 136.453125 L 224.675781 136.453125 Z M 223.925781 137.855469 " fill-opacity="1" fill-rule="nonzero"/><path fill="#000000" d="M 225.488281 137 L 226.492188 137 L 226.492188 137.140625 L 225.488281 137.140625 L 225.488281 137.703125 L 226.535156 137.703125 L 226.535156 137.855469 L 225.261719 137.855469 L 225.261719 136.324219 L 226.535156 136.324219 L 226.535156 136.476562 L 225.488281 136.476562 Z M 225.488281 137 " fill-opacity="1" fill-rule="nonzero"/><path fill="#000000" d="M 227.574219 137.855469 L 227.351562 137.855469 L 227.351562 136.476562 L 226.707031 136.476562 L 226.707031 136.324219 L 228.21875 136.324219 L 228.21875 136.476562 L 227.574219 136.476562 Z M 227.574219 137.855469 " fill-opacity="1" fill-rule="nonzero"/><path fill="#000000" d="M 228.480469 136.324219 L 228.707031 136.324219 L 228.707031 137.855469 L 228.480469 137.855469 Z M 228.480469 136.324219 " fill-opacity="1" fill-rule="nonzero"/><path fill="#000000" d="M 229.652344 137.871094 C 229.292969 137.871094 229.078125 137.695312 229.078125 137.386719 L 229.078125 136.792969 C 229.078125 136.363281 229.421875 136.3125 229.90625 136.3125 L 230.089844 136.3125 C 230.503906 136.3125 230.632812 136.453125 230.632812 136.753906 L 230.632812 136.804688 L 230.40625 136.804688 L 230.40625 136.761719 C 230.40625 136.546875 230.347656 136.464844 230.058594 136.464844 L 229.933594 136.464844 C 229.464844 136.464844 229.300781 136.507812 229.300781 136.789062 L 229.300781 137.210938 C 229.300781 137.558594 229.320312 137.714844 229.695312 137.714844 L 229.964844 137.714844 C 230.324219 137.714844 230.433594 137.679688 230.433594 137.457031 L 230.433594 137.335938 L 230.660156 137.335938 L 230.660156 137.480469 C 230.660156 137.832031 230.367188 137.871094 229.972656 137.871094 Z M 229.652344 137.871094 " fill-opacity="1" fill-rule="nonzero"/><g clip-path="url(#30cc1209d7)"><path fill="#cb001c" d="M 2.054688 128.4375 L 232.148438 128.4375 L 232.148438 138.765625 L 2.054688 138.765625 Z M 2.054688 128.4375 " fill-opacity="1" fill-rule="nonzero"/></g><path fill="#ffffff" d="M 2.054688 118.097656 L 232.148438 118.097656 L 232.148438 128.4375 L 2.054688 128.4375 Z M 2.054688 118.097656 " fill-opacity="1" fill-rule="nonzero"/><path fill="#cb001c" d="M 2.054688 107.765625 L 232.148438 107.765625 L 232.148438 118.097656 L 2.054688 118.097656 Z M 2.054688 107.765625 " fill-opacity="1" fill-rule="nonzero"/><path fill="#ffffff" d="M 2.054688 97.417969 L 232.148438 97.417969 L 232.148438 107.765625 L 2.054688 107.765625 Z M 2.054688 97.417969 " fill-opacity="1" fill-rule="nonzero"/><path fill="#cb001c" d="M 2.054688 87.089844 L 232.148438 87.089844 L 232.148438 97.417969 L 2.054688 97.417969 Z M 2.054688 87.089844 " fill-opacity="1" fill-rule="nonzero"/><path fill="#ffffff" d="M 2.054688 76.757812 L 232.148438 76.757812 L 232.148438 87.089844 L 2.054688 87.089844 Z M 2.054688 76.757812 " fill-opacity="1" fill-rule="nonzero"/><path fill="#cb001c" d="M 2.054688 66.417969 L 232.148438 66.417969 L 232.148438 76.757812 L 2.054688 76.757812 Z M 2.054688 66.417969 " fill-opacity="1" fill-rule="nonzero"/><path fill="#ffffff" d="M 2.054688 56.078125 L 232.148438 56.078125 L 232.148438 66.410156 L 2.054688 66.410156 Z M 2.054688 56.078125 " fill-opacity="1" fill-rule="nonzero"/><path fill="#cb001c" d="M 2.054688 45.738281 L 232.148438 45.738281 L 232.148438 56.078125 L 2.054688 56.078125 Z M 2.054688 45.738281 " fill-opacity="1" fill-rule="nonzero"/><path fill="#ffffff" d="M 2.054688 35.398438 L 232.148438 35.398438 L 232.148438 45.734375 L 2.054688 45.734375 Z M 2.054688 35.398438 " fill-opacity="1" fill-rule="nonzero"/><path fill="#cb001c" d="M 2.054688 25.070312 L 232.148438 25.070312 L 232.148438 35.398438 L 2.054688 35.398438 Z M 2.054688 25.070312 " fill-opacity="1" fill-rule="nonzero"/><path fill="#ffffff" d="M 2.054688 14.726562 L 232.148438 14.726562 L 232.148438 25.066406 L 2.054688 25.066406 Z M 2.054688 14.726562 " fill-opacity="1" fill-rule="nonzero"/><g clip-path="url(#c6109cd860)"><path fill="#cb001c" d="M 2.054688 4.390625 L 232.148438 4.390625 L 232.148438 14.726562 L 2.054688 14.726562 Z M 2.054688 4.390625 " fill-opacity="1" fill-rule="nonzero"/></g><g clip-path="url(#17493cfded)"><path fill="#2a3560" d="M 2.054688 4.390625 L 107.101562 4.390625 L 107.101562 76.757812 L 2.054688 76.757812 Z M 2.054688 4.390625 " fill-opacity="1" fill-rule="nonzero"/></g><path fill="#ffffff" d="M 11.53125 12.363281 L 12.414062 15.101562 L 15.285156 15.101562 L 12.964844 16.789062 L 13.851562 19.527344 L 11.53125 17.828125 L 9.203125 19.527344 L 10.09375 16.789062 L 7.769531 15.101562 L 10.636719 15.101562 Z M 11.53125 12.363281 " fill-opacity="1" fill-rule="nonzero"/><path fill="#ffffff" d="M 11.53125 24.441406 L 12.414062 27.175781 L 15.285156 27.175781 L 12.964844 28.871094 L 13.851562 31.605469 L 11.53125 29.910156 L 9.203125 31.605469 L 10.09375 28.871094 L 7.769531 27.175781 L 10.636719 27.175781 Z M 11.53125 24.441406 " fill-opacity="1" fill-rule="nonzero"/><path fill="#ffffff" d="M 11.53125 36.523438 L 12.414062 39.25 L 15.285156 39.25 L 12.964844 40.945312 L 13.851562 43.679688 L 11.53125 41.984375 L 9.203125 43.679688 L 10.09375 40.945312 L 7.769531 39.25 L 10.636719 39.25 Z M 11.53125 36.523438 " fill-opacity="1" fill-rule="nonzero"/><path fill="#ffffff" d="M 11.53125 48.601562 L 12.414062 51.335938 L 15.285156 51.335938 L 12.964844 53.027344 L 13.851562 55.753906 L 11.53125 54.070312 L 9.203125 55.753906 L 10.09375 53.027344 L 7.769531 51.335938 L 10.636719 51.335938 Z M 11.53125 48.601562 " fill-opacity="1" fill-rule="nonzero"/><path fill="#ffffff" d="M 11.53125 60.679688 L 12.414062 63.414062 L 15.285156 63.414062 L 12.964844 65.105469 L 13.851562 67.835938 L 11.53125 66.152344 L 9.203125 67.835938 L 10.09375 65.105469 L 7.769531 63.414062 L 10.636719 63.414062 Z M 11.53125 60.679688 " fill-opacity="1" fill-rule="nonzero"/><path fill="#ffffff" d="M 19.9375 18.730469 L 20.816406 21.460938 L 23.683594 21.460938 L 21.367188 23.15625 L 22.25 25.890625 L 19.9375 24.195312 L 17.609375 25.890625 L 18.496094 23.15625 L 16.171875 21.460938 L 19.046875 21.460938 Z M 19.9375 18.730469 " fill-opacity="1" fill-rule="nonzero"/><path fill="#ffffff" d="M 19.9375 30.804688 L 20.816406 33.539062 L 23.683594 33.539062 L 21.367188 35.230469 L 22.25 37.964844 L 19.9375 36.277344 L 17.609375 37.964844 L 18.496094 35.230469 L 16.171875 33.539062 L 19.046875 33.539062 Z M 19.9375 30.804688 " fill-opacity="1" fill-rule="nonzero"/><path fill="#ffffff" d="M 19.9375 42.886719 L 20.816406 45.621094 L 23.683594 45.621094 L 21.367188 47.3125 L 22.25 50.039062 L 19.9375 48.355469 L 17.609375 50.039062 L 18.496094 47.3125 L 16.171875 45.621094 L 19.046875 45.621094 Z M 19.9375 42.886719 " fill-opacity="1" fill-rule="nonzero"/><path fill="#ffffff" d="M 19.9375 54.964844 L 20.816406 57.695312 L 23.683594 57.695312 L 21.367188 59.386719 L 22.25 62.121094 L 19.9375 60.429688 L 17.609375 62.121094 L 18.496094 59.386719 L 16.171875 57.695312 L 19.046875 57.695312 Z M 19.9375 54.964844 " fill-opacity="1" fill-rule="nonzero"/><path fill="#ffffff" d="M 28.445312 12.363281 L 29.332031 15.101562 L 32.207031 15.101562 L 29.878906 16.789062 L 30.765625 19.527344 L 28.445312 17.828125 L 26.117188 19.527344 L 27.003906 16.789062 L 24.675781 15.101562 L 27.554688 15.101562 Z M 28.445312 12.363281 " fill-opacity="1" fill-rule="nonzero"/><path fill="#ffffff" d="M 28.445312 24.441406 L 29.332031 27.175781 L 32.207031 27.175781 L 29.878906 28.871094 L 30.765625 31.605469 L 28.445312 29.910156 L 26.117188 31.605469 L 27.003906 28.871094 L 24.675781 27.175781 L 27.554688 27.175781 Z M 28.445312 24.441406 " fill-opacity="1" fill-rule="nonzero"/><path fill="#ffffff" d="M 28.445312 36.523438 L 29.332031 39.25 L 32.207031 39.25 L 29.878906 40.945312 L 30.765625 43.679688 L 28.445312 41.984375 L 26.117188 43.679688 L 27.003906 40.945312 L 24.675781 39.25 L 27.554688 39.25 Z M 28.445312 36.523438 " fill-opacity="1" fill-rule="nonzero"/><path fill="#ffffff" d="M 28.445312 48.601562 L 29.332031 51.335938 L 32.207031 51.335938 L 29.878906 53.027344 L 30.765625 55.753906 L 28.445312 54.070312 L 26.117188 55.753906 L 27.003906 53.027344 L 24.675781 51.335938 L 27.554688 51.335938 Z M 28.445312 48.601562 " fill-opacity="1" fill-rule="nonzero"/><path fill="#ffffff" d="M 28.445312 60.679688 L 29.332031 63.414062 L 32.207031 63.414062 L 29.878906 65.105469 L 30.765625 67.835938 L 28.445312 66.152344 L 26.117188 67.835938 L 27.003906 65.105469 L 24.675781 63.414062 L 27.554688 63.414062 Z M 28.445312 60.679688 " fill-opacity="1" fill-rule="nonzero"/><path fill="#ffffff" d="M 36.839844 18.730469 L 37.734375 21.460938 L 40.601562 21.460938 L 38.28125 23.15625 L 39.167969 25.890625 L 36.839844 24.195312 L 34.507812 25.890625 L 35.40625 23.15625 L 33.085938 21.460938 L 35.953125 21.460938 Z M 36.839844 18.730469 " fill-opacity="1" fill-rule="nonzero"/><path fill="#ffffff" d="M 36.839844 30.804688 L 37.734375 33.539062 L 40.601562 33.539062 L 38.28125 35.230469 L 39.167969 37.964844 L 36.839844 36.277344 L 34.507812 37.964844 L 35.40625 35.230469 L 33.085938 33.539062 L 35.953125 33.539062 Z M 36.839844 30.804688 " fill-opacity="1" fill-rule="nonzero"/><path fill="#ffffff" d="M 36.839844 42.886719 L 37.734375 45.621094 L 40.601562 45.621094 L 38.28125 47.3125 L 39.167969 50.039062 L 36.839844 48.355469 L 34.507812 50.039062 L 35.40625 47.3125 L 33.085938 45.621094 L 35.953125 45.621094 Z M 36.839844 42.886719 " fill-opacity="1" fill-rule="nonzero"/><path fill="#ffffff" d="M 36.839844 54.964844 L 37.734375 57.695312 L 40.601562 57.695312 L 38.28125 59.386719 L 39.167969 62.121094 L 36.839844 60.429688 L 34.507812 62.121094 L 35.40625 59.386719 L 33.085938 57.695312 L 35.953125 57.695312 Z M 36.839844 54.964844 " fill-opacity="1" fill-rule="nonzero"/><path fill="#ffffff" d="M 45.351562 12.363281 L 46.242188 15.101562 L 49.113281 15.101562 L 46.789062 16.789062 L 47.667969 19.527344 L 45.351562 17.828125 L 43.03125 19.527344 L 43.925781 16.789062 L 41.597656 15.101562 L 44.464844 15.101562 Z M 45.351562 12.363281 " fill-opacity="1" fill-rule="nonzero"/><path fill="#ffffff" d="M 45.351562 24.441406 L 46.242188 27.175781 L 49.113281 27.175781 L 46.789062 28.871094 L 47.667969 31.605469 L 45.351562 29.910156 L 43.03125 31.605469 L 43.925781 28.871094 L 41.597656 27.175781 L 44.464844 27.175781 Z M 45.351562 24.441406 " fill-opacity="1" fill-rule="nonzero"/><path fill="#ffffff" d="M 45.351562 36.523438 L 46.242188 39.25 L 49.113281 39.25 L 46.789062 40.945312 L 47.667969 43.679688 L 45.351562 41.984375 L 43.03125 43.679688 L 43.925781 40.945312 L 41.597656 39.25 L 44.464844 39.25 Z M 45.351562 36.523438 " fill-opacity="1" fill-rule="nonzero"/><path fill="#ffffff" d="M 45.351562 48.601562 L 46.242188 51.335938 L 49.113281 51.335938 L 46.789062 53.027344 L 47.667969 55.753906 L 45.351562 54.070312 L 43.03125 55.753906 L 43.925781 53.027344 L 41.597656 51.335938 L 44.464844 51.335938 Z M 45.351562 48.601562 " fill-opacity="1" fill-rule="nonzero"/><path fill="#ffffff" d="M 45.351562 60.679688 L 46.242188 63.414062 L 49.113281 63.414062 L 46.789062 65.105469 L 47.667969 67.835938 L 45.351562 66.152344 L 43.03125 67.835938 L 43.925781 65.105469 L 41.597656 63.414062 L 44.464844 63.414062 Z M 45.351562 60.679688 " fill-opacity="1" fill-rule="nonzero"/><path fill="#ffffff" d="M 53.75 18.730469 L 54.644531 21.460938 L 57.511719 21.460938 L 55.195312 23.15625 L 56.078125 25.890625 L 53.75 24.195312 L 51.429688 25.890625 L 52.308594 23.15625 L 49.996094 21.460938 L 52.867188 21.460938 Z M 53.75 18.730469 " fill-opacity="1" fill-rule="nonzero"/><path fill="#ffffff" d="M 53.75 30.804688 L 54.644531 33.539062 L 57.511719 33.539062 L 55.195312 35.230469 L 56.078125 37.964844 L 53.75 36.277344 L 51.429688 37.964844 L 52.308594 35.230469 L 49.996094 33.539062 L 52.867188 33.539062 Z M 53.75 30.804688 " fill-opacity="1" fill-rule="nonzero"/><path fill="#ffffff" d="M 53.75 42.886719 L 54.644531 45.621094 L 57.511719 45.621094 L 55.195312 47.3125 L 56.078125 50.039062 L 53.75 48.355469 L 51.429688 50.039062 L 52.308594 47.3125 L 49.996094 45.621094 L 52.867188 45.621094 Z M 53.75 42.886719 " fill-opacity="1" fill-rule="nonzero"/><path fill="#ffffff" d="M 53.75 54.964844 L 54.644531 57.695312 L 57.511719 57.695312 L 55.195312 59.386719 L 56.078125 62.121094 L 53.75 60.429688 L 51.429688 62.121094 L 52.308594 59.386719 L 49.996094 57.695312 L 52.867188 57.695312 Z M 53.75 54.964844 " fill-opacity="1" fill-rule="nonzero"/><path fill="#ffffff" d="M 62.265625 12.363281 L 63.148438 15.101562 L 66.027344 15.101562 L 63.699219 16.789062 L 64.59375 19.527344 L 62.265625 17.828125 L 59.941406 19.527344 L 60.832031 16.789062 L 58.503906 15.101562 L 61.375 15.101562 Z M 62.265625 12.363281 " fill-opacity="1" fill-rule="nonzero"/><path fill="#ffffff" d="M 62.265625 24.441406 L 63.148438 27.175781 L 66.027344 27.175781 L 63.699219 28.871094 L 64.59375 31.605469 L 62.265625 29.910156 L 59.941406 31.605469 L 60.832031 28.871094 L 58.503906 27.175781 L 61.375 27.175781 Z M 62.265625 24.441406 " fill-opacity="1" fill-rule="nonzero"/><path fill="#ffffff" d="M 62.265625 36.523438 L 63.148438 39.25 L 66.027344 39.25 L 63.699219 40.945312 L 64.59375 43.679688 L 62.265625 41.984375 L 59.941406 43.679688 L 60.832031 40.945312 L 58.503906 39.25 L 61.375 39.25 Z M 62.265625 36.523438 " fill-opacity="1" fill-rule="nonzero"/><path fill="#ffffff" d="M 62.265625 48.601562 L 63.148438 51.335938 L 66.027344 51.335938 L 63.699219 53.027344 L 64.59375 55.753906 L 62.265625 54.070312 L 59.941406 55.753906 L 60.832031 53.027344 L 58.503906 51.335938 L 61.375 51.335938 Z M 62.265625 48.601562 " fill-opacity="1" fill-rule="nonzero"/><path fill="#ffffff" d="M 62.265625 60.679688 L 63.148438 63.414062 L 66.027344 63.414062 L 63.699219 65.105469 L 64.59375 67.835938 L 62.265625 66.152344 L 59.941406 67.835938 L 60.832031 65.105469 L 58.503906 63.414062 L 61.375 63.414062 Z M 62.265625 60.679688 " fill-opacity="1" fill-rule="nonzero"/><path fill="#ffffff" d="M 70.671875 18.730469 L 71.558594 21.460938 L 74.421875 21.460938 L 72.097656 23.15625 L 72.992188 25.890625 L 70.671875 24.195312 L 68.335938 25.890625 L 69.230469 23.15625 L 66.910156 21.460938 L 69.78125 21.460938 Z M 70.671875 18.730469 " fill-opacity="1" fill-rule="nonzero"/><path fill="#ffffff" d="M 70.671875 30.804688 L 71.558594 33.539062 L 74.421875 33.539062 L 72.097656 35.230469 L 72.992188 37.964844 L 70.671875 36.277344 L 68.335938 37.964844 L 69.230469 35.230469 L 66.910156 33.539062 L 69.78125 33.539062 Z M 70.671875 30.804688 " fill-opacity="1" fill-rule="nonzero"/><path fill="#ffffff" d="M 70.671875 42.886719 L 71.558594 45.621094 L 74.421875 45.621094 L 72.097656 47.3125 L 72.992188 50.039062 L 70.671875 48.355469 L 68.335938 50.039062 L 69.230469 47.3125 L 66.910156 45.621094 L 69.78125 45.621094 Z M 70.671875 42.886719 " fill-opacity="1" fill-rule="nonzero"/><path fill="#ffffff" d="M 70.671875 54.964844 L 71.558594 57.695312 L 74.421875 57.695312 L 72.097656 59.386719 L 72.992188 62.121094 L 70.671875 60.429688 L 68.335938 62.121094 L 69.230469 59.386719 L 66.910156 57.695312 L 69.78125 57.695312 Z M 70.671875 54.964844 " fill-opacity="1" fill-rule="nonzero"/><path fill="#ffffff" d="M 79.179688 12.363281 L 80.0625 15.101562 L 82.933594 15.101562 L 80.621094 16.789062 L 81.503906 19.527344 L 79.179688 17.828125 L 76.859375 19.527344 L 77.746094 16.789062 L 75.417969 15.101562 L 78.285156 15.101562 Z M 79.179688 12.363281 " fill-opacity="1" fill-rule="nonzero"/><path fill="#ffffff" d="M 79.179688 24.441406 L 80.0625 27.175781 L 82.933594 27.175781 L 80.621094 28.871094 L 81.503906 31.605469 L 79.179688 29.910156 L 76.859375 31.605469 L 77.746094 28.871094 L 75.417969 27.175781 L 78.285156 27.175781 Z M 79.179688 24.441406 " fill-opacity="1" fill-rule="nonzero"/><path fill="#ffffff" d="M 79.179688 36.523438 L 80.0625 39.25 L 82.933594 39.25 L 80.621094 40.945312 L 81.503906 43.679688 L 79.179688 41.984375 L 76.859375 43.679688 L 77.746094 40.945312 L 75.417969 39.25 L 78.285156 39.25 Z M 79.179688 36.523438 " fill-opacity="1" fill-rule="nonzero"/><path fill="#ffffff" d="M 79.179688 48.601562 L 80.0625 51.335938 L 82.933594 51.335938 L 80.621094 53.027344 L 81.503906 55.753906 L 79.179688 54.070312 L 76.859375 55.753906 L 77.746094 53.027344 L 75.417969 51.335938 L 78.285156 51.335938 Z M 79.179688 48.601562 " fill-opacity="1" fill-rule="nonzero"/><path fill="#ffffff" d="M 79.179688 60.679688 L 80.0625 63.414062 L 82.933594 63.414062 L 80.621094 65.105469 L 81.503906 67.835938 L 79.179688 66.152344 L 76.859375 67.835938 L 77.746094 65.105469 L 75.417969 63.414062 L 78.285156 63.414062 Z M 79.179688 60.679688 " fill-opacity="1" fill-rule="nonzero"/><path fill="#ffffff" d="M 87.582031 18.730469 L 88.464844 21.460938 L 91.339844 21.460938 L 89.019531 23.15625 L 89.898438 25.890625 L 87.582031 24.195312 L 85.25 25.890625 L 86.136719 23.15625 L 83.824219 21.460938 L 86.695312 21.460938 Z M 87.582031 18.730469 " fill-opacity="1" fill-rule="nonzero"/><path fill="#ffffff" d="M 87.582031 30.804688 L 88.464844 33.539062 L 91.339844 33.539062 L 89.019531 35.230469 L 89.898438 37.964844 L 87.582031 36.277344 L 85.25 37.964844 L 86.136719 35.230469 L 83.824219 33.539062 L 86.695312 33.539062 Z M 87.582031 30.804688 " fill-opacity="1" fill-rule="nonzero"/><path fill="#ffffff" d="M 87.582031 42.886719 L 88.464844 45.621094 L 91.339844 45.621094 L 89.019531 47.3125 L 89.898438 50.039062 L 87.582031 48.355469 L 85.25 50.039062 L 86.136719 47.3125 L 83.824219 45.621094 L 86.695312 45.621094 Z M 87.582031 42.886719 " fill-opacity="1" fill-rule="nonzero"/><path fill="#ffffff" d="M 87.582031 54.964844 L 88.464844 57.695312 L 91.339844 57.695312 L 89.019531 59.386719 L 89.898438 62.121094 L 87.582031 60.429688 L 85.25 62.121094 L 86.136719 59.386719 L 83.824219 57.695312 L 86.695312 57.695312 Z M 87.582031 54.964844 " fill-opacity="1" fill-rule="nonzero"/><path fill="#ffffff" d="M 96.089844 12.363281 L 96.976562 15.101562 L 99.847656 15.101562 L 97.523438 16.789062 L 98.414062 19.527344 L 96.089844 17.828125 L 93.761719 19.527344 L 94.65625 16.789062 L 92.328125 15.101562 L 95.203125 15.101562 Z M 96.089844 12.363281 " fill-opacity="1" fill-rule="nonzero"/><path fill="#ffffff" d="M 96.089844 24.441406 L 96.976562 27.175781 L 99.847656 27.175781 L 97.523438 28.871094 L 98.414062 31.605469 L 96.089844 29.910156 L 93.761719 31.605469 L 94.65625 28.871094 L 92.328125 27.175781 L 95.203125 27.175781 Z M 96.089844 24.441406 " fill-opacity="1" fill-rule="nonzero"/><path fill="#ffffff" d="M 96.089844 36.523438 L 96.976562 39.25 L 99.847656 39.25 L 97.523438 40.945312 L 98.414062 43.679688 L 96.089844 41.984375 L 93.761719 43.679688 L 94.65625 40.945312 L 92.328125 39.25 L 95.203125 39.25 Z M 96.089844 36.523438 " fill-opacity="1" fill-rule="nonzero"/><path fill="#ffffff" d="M 96.089844 48.601562 L 96.976562 51.335938 L 99.847656 51.335938 L 97.523438 53.027344 L 98.414062 55.753906 L 96.089844 54.070312 L 93.761719 55.753906 L 94.65625 53.027344 L 92.328125 51.335938 L 95.203125 51.335938 Z M 96.089844 48.601562 " fill-opacity="1" fill-rule="nonzero"/><path fill="#ffffff" d="M 96.089844 60.679688 L 96.976562 63.414062 L 99.847656 63.414062 L 97.523438 65.105469 L 98.414062 67.835938 L 96.089844 66.152344 L 93.761719 67.835938 L 94.65625 65.105469 L 92.328125 63.414062 L 95.203125 63.414062 Z M 96.089844 60.679688 " fill-opacity="1" fill-rule="nonzero"/></svg>