<?xml version="1.0" encoding="UTF-8"?>
<!DOCTYPE svg PUBLIC "-//W3C//DTD SVG 1.1//EN" "http://www.w3.org/Graphics/SVG/1.1/DTD/svg11.dtd">
<!-- Creator: CorelDRAW X6 -->
<svg xmlns="http://www.w3.org/2000/svg" xml:space="preserve" width="120mm" height="110mm" version="1.1" style="shape-rendering:geometricPrecision; text-rendering:geometricPrecision; image-rendering:optimizeQuality; fill-rule:evenodd; clip-rule:evenodd"
viewBox="0 0 12000 11000"
 xmlns:xlink="http://www.w3.org/1999/xlink">
 <defs>
  <style type="text/css">
   <![CDATA[
    .fil4 {fill:#BBBBBB}
    .fil2 {fill:#C3C3C4}
    .fil0 {fill:#CACACA}
    .fil1 {fill:#DDDDDD}
    .fil3 {fill:#FDFEFE}
   ]]>
  </style>
 </defs>
 <g id="Vrstva_x0020_1">
  <metadata id="CorelCorpID_0Corel-Layer"/>
  <g id="_1580498992">
   <path class="fil0" d="M7101 3508c-124,21 -316,-133 -399,-218 -108,-111 -197,-231 -312,-352 -45,68 -54,321 -114,491 -85,241 -85,241 -67,529 68,30 451,78 519,60 86,-24 308,-150 406,-198 342,-165 139,-76 444,-158 87,-24 282,-226 311,-304l-41 -126c-176,99 -118,158 -355,-189 -73,-107 -245,-415 -278,-435 -13,203 -49,769 -115,901z"/>
   <path class="fil0" d="M9208 4489c-82,-155 -163,-504 -213,-707 -224,10 -105,85 -299,-218 2,373 132,493 34,835 -35,123 -68,236 -106,362 -72,241 -72,155 24,340 303,-22 594,3 881,-16 -30,-83 -114,-222 -163,-307 -55,-97 -106,-189 -159,-290z"/>
  </g>
  <g id="_1577459968">
   <path class="fil1" d="M6060 4109c-140,-449 122,-754 149,-1241 -108,27 -706,243 -782,295l-594 472 619 260 -1043 -291 -749 2568c859,-123 2290,120 2982,-97 4,-235 -717,-829 352,-821 266,2 533,21 800,26 371,8 387,-31 683,-120 -89,-208 -131,-76 -19,-447 36,-120 114,-336 135,-455 18,-98 -99,-898 -127,-1041 -421,84 -582,534 -791,595 -159,46 -203,26 -360,109l-1103 536c-79,38 -116,52 -157,0 -70,-108 40,-132 122,-172 76,-38 140,-75 214,-103 -51,-35 -108,-33 -175,-40 -56,-6 -117,-19 -158,-35z"/>
   <path class="fil1" d="M7369 5652c26,339 1268,910 -3,1056 -338,39 -689,39 -1034,48 -224,6 -842,-45 -884,200 82,62 923,284 1018,313l2052 601c319,96 717,234 1034,299l606 -2071 -280 -386c-76,-147 -145,-272 -230,-414 -123,-22 -512,-5 -639,23 -190,42 -210,177 -421,241 -343,104 -918,-21 -1218,90z"/>
   <path class="fil1" d="M9846 5278c126,225 190,389 359,660l171 -603c-205,-39 -329,-148 -529,-56z"/>
   <path class="fil1" d="M6630 2938c78,104 208,279 349,336l75 -740c-58,32 -64,63 -98,92 -70,60 -85,15 -153,62 -30,21 -157,214 -173,251z"/>
  </g>
  <path class="fil2" d="M9675 8347c-143,32 -1295,-340 -1520,-406 -1494,-438 -3035,-869 -4511,-1321 -307,-94 -300,7 -125,-585 161,-545 1467,-5113 1540,-5247 180,-23 1351,360 1605,431 516,145 1032,306 1555,454l2352 689c205,57 599,156 763,233 31,125 -135,588 -179,735l-1057 3585c-141,468 -272,975 -423,1431zm-5015 -8176c-102,59 -271,759 -316,911 -91,312 -186,631 -280,950l-1685 5729c-114,385 -141,330 570,529 956,267 1901,576 2866,839 636,174 1281,375 1916,562 241,71 1807,565 1921,526 92,-31 121,-255 176,-429l418 -1434c201,-637 373,-1282 559,-1917 380,-1297 750,-2568 1112,-3819 52,-179 143,-322 -73,-390l-6216 -1819c-146,-43 -874,-291 -968,-238z"/>
  <path class="fil3" d="M7369 5652c300,-110 875,14 1218,-90 211,-64 231,-199 421,-241 127,-28 516,-45 639,-23 84,142 154,268 230,414l280 386 -606 2071c-317,-65 -714,-204 -1034,-299l-2052 -601c-95,-29 -936,-251 -1018,-313 42,-245 659,-195 884,-200 345,-9 695,-9 1034,-48 1271,-146 30,-718 3,-1056zm2477 -373c200,-91 324,17 529,56l-171 603c-169,-271 -233,-435 -359,-660zm-1150 -1714c194,303 75,228 299,218 50,203 131,552 213,707 53,100 104,193 159,290 49,86 133,224 163,307 -287,19 -578,-6 -881,16 -96,-185 -96,-99 -24,-340 38,-126 70,-239 106,-362 98,-342 -32,-463 -34,-835zm-1595 -57c66,-132 102,-698 115,-901 33,20 205,328 278,435 237,347 178,288 355,189l41 126c-29,77 -224,280 -311,304 -305,83 -103,-6 -444,158 -99,48 -321,174 -406,198 -68,19 -451,-30 -519,-60 -19,-288 -18,-289 67,-529 60,-170 69,-423 114,-491 115,121 204,241 312,352 83,86 276,239 399,218zm-1041 601c41,16 102,29 158,35 66,7 124,5 175,40 -74,27 -138,65 -214,103 -82,41 -192,65 -122,172 41,52 78,38 157,0l1103 -536c156,-84 201,-63 360,-109 209,-61 370,-511 791,-595 28,143 144,943 127,1041 -21,119 -99,335 -135,455 -113,371 -71,239 19,447 -296,89 -312,127 -683,120 -266,-6 -533,-24 -800,-26 -1069,-9 -348,585 -352,821 -693,217 -2124,-26 -2982,97l749 -2568 1043 291 -619 -260 594 -472c76,-52 674,-268 782,-295 -28,486 -289,791 -149,1241zm569 -1171c16,-37 143,-230 173,-251 68,-47 83,-2 153,-62 35,-30 40,-60 98,-92l-75 740c-141,-56 -272,-231 -349,-336zm3046 5410c150,-456 281,-963 423,-1431l1057 -3585c44,-147 210,-610 179,-735 -164,-77 -558,-177 -763,-233l-2352 -689c-523,-149 -1039,-309 -1555,-454 -254,-71 -1425,-454 -1605,-431 -72,135 -1378,4703 -1540,5247 -175,592 -182,491 125,585 1476,452 3016,883 4511,1321 226,66 1378,438 1520,406z"/>
  <path class="fil4" d="M6426 9742c-131,-59 -409,-126 -563,-171l-3455 -1012c-776,-226 -447,-816 -252,-1489 114,-392 223,-771 338,-1161 113,-384 230,-764 336,-1147 66,-239 306,-990 334,-1157 -162,20 -2246,657 -2620,761 -843,235 -471,952 -310,1510l1286 4388c101,340 160,550 474,660 268,93 668,-72 920,-148 342,-102 3293,-946 3511,-1034z"/>
 </g>
</svg>
